<?xml version="1.0" encoding="utf-8"?>
<!-- Generator: Adobe Illustrator 16.0.0, SVG Export Plug-In . SVG Version: 6.00 Build 0)  -->
<!DOCTYPE svg PUBLIC "-//W3C//DTD SVG 1.1//EN" "http://www.w3.org/Graphics/SVG/1.1/DTD/svg11.dtd">
<svg version="1.1" id="Layer_1" xmlns="http://www.w3.org/2000/svg" xmlns:xlink="http://www.w3.org/1999/xlink" x="0px" y="0px"
	 width="100px" height="100px" viewBox="0 0 100 100" enable-background="new 0 0 100 100" xml:space="preserve">
<circle fill="none" stroke="#000000" stroke-miterlimit="10" cx="59.258" cy="52.626" r="7.867"/>
<circle fill="none" stroke="#000000" stroke-miterlimit="10" cx="59.258" cy="52.626" r="16.117"/>
<circle fill="none" stroke="#000000" stroke-miterlimit="10" cx="59.258" cy="52.625" r="24.492"/>
<line fill="none" stroke="#000000" stroke-miterlimit="10" x1="85.125" y1="76.25" x2="65.727" y2="76.25"/>
<path fill="none" stroke="#000000" stroke-miterlimit="10" d="M45.75,29.25c-0.75,0.667-9.848,0.723-13.625,1
	c-1.589,0-2.281,0.188-2.875-1c-0.594-1.581-11-1-15.625,1.875l-3.5,6.25C9.094,39.333,8.917,71.083,9.5,73.333s5,3.784,5,3.784
	c4.083,1.3,15.833,0.716,15.75-0.867h22.533"/>
<path fill="none" stroke="#000000" stroke-miterlimit="10" d="M45.75,29.25c0,0,1.417-1.583,2.75-5.875
	c0.708-2.279,1.833-2.125,2.5-2.125s16.25-0.167,17.75,0s2.375,2.125,2.375,2.125l3,5.875C76,30.667,86.917,30.833,88,33.333
	s1.333,42.917,0,42.917h-2.875"/>
<line fill="none" stroke="#000000" stroke-miterlimit="10" x1="44.25" y1="26" x2="44.71" y2="29.54"/>
<line fill="none" stroke="#000000" stroke-miterlimit="10" x1="31.502" y1="30.226" x2="30.977" y2="27.333"/>
<line fill="none" stroke="#000000" stroke-miterlimit="10" x1="77.419" y1="30.226" x2="78" y2="27.958"/>
<line fill="none" stroke="#000000" stroke-miterlimit="10" x1="84.729" y1="31.578" x2="85.125" y2="29.583"/>
<ellipse transform="matrix(0.9798 0.2002 -0.2002 0.9798 7.4055 -15.7447)" fill="none" stroke="#000000" stroke-miterlimit="10" cx="81.566" cy="28.751" rx="3.653" ry="0.812"/>
<ellipse transform="matrix(0.9931 -0.1175 0.1175 0.9931 -2.8727 4.6041)" fill="none" stroke="#000000" stroke-miterlimit="10" cx="37.613" cy="26.667" rx="6.637" ry="0.667"/>
<path fill="none" stroke="#000000" stroke-miterlimit="10" d="M10.837,36.104c2.413-0.041,3.101,0,3.101,0s-0.062,1.771,5.125,1.709
	S29.5,34.125,29.5,34.125l13.236,0.422"/>
<ellipse transform="matrix(0.9609 -0.2769 0.2769 0.9609 -8.3071 7.1614)" fill="none" stroke="#000000" stroke-miterlimit="10" cx="21.201" cy="32.992" rx="3.978" ry="2.232"/>
<line fill="none" stroke="#000000" stroke-miterlimit="10" x1="30.25" y1="76.25" x2="30.25" y2="34.149"/>
<path fill="none" stroke="#000000" stroke-miterlimit="10" d="M60.125,46.75"/>
<path fill="none" stroke="#000000" stroke-miterlimit="10" d="M61.917,50.75"/>
<path fill="none" stroke="#000000" stroke-miterlimit="10" d="M60.125,46.625"/>
<path fill="none" stroke="#000000" stroke-miterlimit="10" d="M53.845,53.11c0-3.183,2.422-5.758,5.414-5.758"/>
<path fill="none" stroke="#000000" stroke-miterlimit="10" d="M63.2,57.113"/>
<path fill="none" stroke="#000000" stroke-miterlimit="10" d="M65.031,53.11"/>
</svg>
