<?xml version="1.0" encoding="utf-8"?>
<!-- Generator: Adobe Illustrator 16.0.0, SVG Export Plug-In . SVG Version: 6.00 Build 0)  -->
<!DOCTYPE svg PUBLIC "-//W3C//DTD SVG 1.1//EN" "http://www.w3.org/Graphics/SVG/1.1/DTD/svg11.dtd">
<svg version="1.1" id="Layer_1" xmlns="http://www.w3.org/2000/svg" xmlns:xlink="http://www.w3.org/1999/xlink" x="0px" y="0px"
	 width="100px" height="100px" viewBox="0 0 100 100" enable-background="new 0 0 100 100" xml:space="preserve">
<path fill="none" stroke="#000000" stroke-miterlimit="10" d="M54.5,64.583c-0.667-2.416-2.917-7.582-2.75-9.416
	s0.499-5.583,2.333-6.583S56.833,47.5,60,47.417s9.833-0.25,11.75,0S75.5,48.25,76.25,50s0.083,5.417-0.417,7.75
	s-1.749,6.083-1.916,6.833s0.249,2.25-1.834,2.167s-13.25,0.089-14.833,0.003S54.5,64.583,54.5,64.583z"/>
<path fill="none" stroke="#000000" stroke-miterlimit="10" d="M59.591,59.148c-0.339-1.227-1.48-3.85-1.396-4.781
	c0.085-0.931,0.253-2.834,1.185-3.343c0.932-0.507,1.396-0.55,3.004-0.592c1.609-0.042,4.993-0.126,5.967,0
	c0.974,0.127,1.904,0.423,2.285,1.312c0.381,0.888,0.042,2.751-0.212,3.935c-0.254,1.186-0.889,3.089-0.974,3.47
	c-0.084,0.381,0.127,1.143-0.93,1.101c-1.059-0.043-6.729,0.045-7.532,0.002C60.184,60.206,59.591,59.148,59.591,59.148z"/>
<path fill="none" stroke="#000000" stroke-miterlimit="10" d="M53.246,60.895h-2.559c0,0-0.938-4.52-1-6.082s-0.562-5.25-0.375-6
	s3.125-3.062,4.375-3.438s15.188,0,15.188,0s3-0.312,3.5-1.062s0.438-1.812,0.812-2.375s4.938-6.5,5.5-6.875S80,34.625,80.125,36.25
	S80.75,44.438,80.562,47s-0.875,8.125-1.312,10.031s-0.812,4.656-1.312,4.781s-3.203,0-3.203,0"/>
<path fill="none" stroke="#000000" stroke-miterlimit="10" d="M78.688,35.062c0,0-1.188-3.688-7.438-4.125
	s-40.625,0.625-47.812,1.375s-10.75,1.25-10.688,7.625s2.812,8.812,10.062,8.875s26.5,0,26.5,0"/>
<ellipse fill="none" stroke="#000000" stroke-miterlimit="10" cx="68.954" cy="71.625" rx="8.438" ry="0.906"/>
<path fill="none" stroke="#000000" stroke-miterlimit="10" d="M77.392,68.939c0-0.501-3.777-0.906-8.438-0.906
	s-8.438,0.405-8.438,0.906v2.686"/>
<line fill="none" stroke="#000000" stroke-miterlimit="10" x1="77.392" y1="71.625" x2="77.392" y2="68.939"/>
<line fill="none" stroke="#000000" stroke-miterlimit="10" x1="73.438" y1="66.372" x2="73.438" y2="68.145"/>
<line fill="none" stroke="#000000" stroke-miterlimit="10" x1="64.164" y1="66.595" x2="64.164" y2="68.145"/>
<rect x="25.956" y="34.042" fill="none" width="40" height="9.833"/>
<text transform="matrix(1.1163 0 0 1 25.9556 42.5615)" font-family="'MyriadPro-Bold'" font-size="12">RØDE</text>
<polyline fill="none" stroke="#000000" stroke-miterlimit="10" points="64.164,70.879 64.164,73.312 73.438,73.312 73.438,70.857 
	"/>
<path fill="none" stroke="#000000" stroke-miterlimit="10" d="M58.19,67.258C57,70.562,66.861,84.688,76.587,79.25
	S87.25,64,87.75,57.688"/>
<path fill="none" stroke="#000000" stroke-miterlimit="10" d="M91.77,57.882c0.193-1.315,0.739-2.558,1.15-2.968
	c0.41-0.408-2.724-2.35-4.233-2.366c-1.511-0.017-2.612,0.789-2.644,1.439c-0.031,0.652,0.287,1.786,0.959,2.173
	c0.671,0.387,0.258,0.753,0.329,1.45c0.071,0.696,0.656,0.578,1.182-0.089C89.039,56.855,91.77,57.882,91.77,57.882z"/>
<polyline fill="none" stroke="#000000" stroke-miterlimit="10" points="91.943,57.031 95.031,57.766 95.598,57.307 96.969,57.469 
	95.696,56.781 95.736,56.174 92.627,55.313 "/>
</svg>
