<?xml version="1.0" encoding="utf-8"?>
<!-- Generator: Adobe Illustrator 16.0.0, SVG Export Plug-In . SVG Version: 6.00 Build 0)  -->
<!DOCTYPE svg PUBLIC "-//W3C//DTD SVG 1.1//EN" "http://www.w3.org/Graphics/SVG/1.1/DTD/svg11.dtd">
<svg version="1.1" id="Layer_1" xmlns="http://www.w3.org/2000/svg" xmlns:xlink="http://www.w3.org/1999/xlink" x="0px" y="0px"
	 width="100px" height="100px" viewBox="0 0 100 100" enable-background="new 0 0 100 100" xml:space="preserve">
<path fill="none" stroke="#000000" stroke-miterlimit="10" d="M45.904,71.848c0,5.178-7.257,9.375-16.208,9.375
	c-8.952,0-16.208-4.197-16.208-9.375"/>
<polyline fill="none" stroke="#000000" stroke-miterlimit="10" points="13.487,71.848 13.487,34 11.659,28.841 "/>
<polyline fill="none" stroke="#000000" stroke-miterlimit="10" points="45.904,71.848 45.904,34 48.534,27.874 "/>
<path fill="none" stroke="#000000" stroke-miterlimit="10" d="M45.904,46.681c0,5.178-7.258,9.375-16.209,9.375
	s-16.208-4.197-16.208-9.375"/>
<path fill="none" stroke="#000000" stroke-miterlimit="10" d="M45.904,40.625c0,5.178-7.258,9.375-16.209,9.375
	s-16.208-4.197-16.208-9.375"/>
<ellipse fill="none" stroke="#000000" stroke-miterlimit="10" cx="29.696" cy="25.479" rx="19.625" ry="8.521"/>
<path fill="none" stroke="#000000" stroke-miterlimit="10" d="M42.038,32.104c0.507-0.588,0.783-1.224,0.783-1.886
	c0-3.055-5.876-5.531-13.125-5.531s-13.125,2.477-13.125,5.531c0,0.662,0.276,1.297,0.783,1.886"/>
<path fill="none" stroke="#000000" stroke-miterlimit="10" d="M28.062,27.917c-4.325,0.235-7.608,1.386-7.608,2.77
	c0,0.389,0.258,0.759,0.726,1.095"/>
<path fill="none" stroke="#000000" stroke-miterlimit="10" d="M58.071,82.292c0,4.127,5.652,7.473,12.625,7.473
	s12.625-3.346,12.625-7.473"/>
<ellipse fill="none" stroke="#000000" stroke-miterlimit="10" cx="70.696" cy="34.444" rx="21.375" ry="6.625"/>
<path fill="none" stroke="#000000" stroke-miterlimit="10" d="M92.071,41.069c0,3.658-9.57,6.625-21.375,6.625
	s-21.375-2.967-21.375-6.625"/>
<line fill="none" stroke="#000000" stroke-miterlimit="10" x1="49.321" y1="41.069" x2="49.321" y2="34.444"/>
<line fill="none" stroke="#000000" stroke-miterlimit="10" x1="92.071" y1="41.069" x2="92.071" y2="34.444"/>
<path fill="none" stroke="#000000" stroke-miterlimit="10" d="M58.071,82.292"/>
<polyline fill="none" stroke="#000000" stroke-miterlimit="10" points="58.071,82.292 58.071,55.069 59.696,53.319 59.696,50.93 
	50.396,43.144 "/>
<polyline fill="none" stroke="#000000" stroke-miterlimit="10" points="83.321,82.292 83.321,55.069 81.696,53.319 81.696,50.93 
	90.996,43.144 "/>
<path fill="none" stroke="#000000" stroke-miterlimit="10" d="M58.071,72.917c0,4.127,5.652,7.473,12.625,7.473
	s12.625-3.346,12.625-7.473"/>
<line fill="none" stroke="#000000" stroke-miterlimit="10" x1="59.696" y1="78.569" x2="59.696" y2="83.444"/>
<line fill="none" stroke="#000000" stroke-miterlimit="10" x1="61.884" y1="80.39" x2="61.884" y2="85.265"/>
<line fill="none" stroke="#000000" stroke-miterlimit="10" x1="64.446" y1="81.604" x2="64.446" y2="86.479"/>
<line fill="none" stroke="#000000" stroke-miterlimit="10" x1="67.634" y1="82.515" x2="67.634" y2="87.39"/>
<line fill="none" stroke="#000000" stroke-miterlimit="10" x1="70.696" y1="82.827" x2="70.696" y2="87.702"/>
<line fill="none" stroke="#000000" stroke-miterlimit="10" x1="81.821" y1="78.417" x2="81.821" y2="83.292"/>
<line fill="none" stroke="#000000" stroke-miterlimit="10" x1="79.634" y1="80.237" x2="79.634" y2="85.112"/>
<line fill="none" stroke="#000000" stroke-miterlimit="10" x1="77.071" y1="81.452" x2="77.071" y2="86.327"/>
<line fill="none" stroke="#000000" stroke-miterlimit="10" x1="73.884" y1="82.362" x2="73.884" y2="87.237"/>
<path fill="none" stroke="#000000" stroke-miterlimit="10" d="M58.071,55.245c0,4.127,5.652,7.473,12.625,7.473
	s12.625-3.346,12.625-7.473"/>
<path fill="none" stroke="#000000" stroke-miterlimit="10" d="M59.721,53.365c0,3.588,4.914,6.496,10.976,6.496
	s10.976-2.908,10.976-6.496"/>
<path fill="none" stroke="#000000" stroke-miterlimit="10" d="M59.696,50.93c1.375-3.235,4.938,5.179,11,5.179s11-1.591,11-5.179"/>
<path fill="none" stroke="#000000" stroke-miterlimit="10" d="M82.53,39.962c-2.084-4.2-6.6-7.11-11.834-7.11
	c-5.233,0-9.749,2.909-11.834,7.109"/>
<line fill="none" stroke="#000000" stroke-miterlimit="10" x1="66.696" y1="35.944" x2="64.738" y2="37.528"/>
<line fill="none" stroke="#000000" stroke-miterlimit="10" x1="65.113" y1="35.944" x2="66.696" y2="37.528"/>
</svg>
