<?xml version="1.0" encoding="utf-8"?>
<!-- Generator: Adobe Illustrator 16.0.0, SVG Export Plug-In . SVG Version: 6.00 Build 0)  -->
<!DOCTYPE svg PUBLIC "-//W3C//DTD SVG 1.1//EN" "http://www.w3.org/Graphics/SVG/1.1/DTD/svg11.dtd">
<svg version="1.1" id="Layer_1" xmlns="http://www.w3.org/2000/svg" xmlns:xlink="http://www.w3.org/1999/xlink" x="0px" y="0px"
	 width="100px" height="100px" viewBox="0 0 100 100" enable-background="new 0 0 100 100" xml:space="preserve">
<path fill="none" stroke="#000000" stroke-miterlimit="10" d="M40.922,83.207"/>
<path fill="none" stroke="#000000" stroke-miterlimit="10" d="M53.35,17.667"/>
<path fill="none" stroke="#000000" stroke-miterlimit="10" d="M39.125,14.713"/>
<path fill="none" stroke="#000000" stroke-miterlimit="10" d="M30.328,14.773"/>
<path fill="none" stroke="#000000" stroke-miterlimit="10" d="M24.5,26c0,0-2,0.875-3.312,1.729S17.125,32.188,15.25,34
	s-6.688,5-8.062,3.5c-0.493-0.538,2.312-4.875,5.5-7.5c0,0,2.25-1.896,5.75-3.754c1.183-0.628,5.134-1.996,5.134-1.996"/>
<circle fill="none" stroke="#000000" stroke-miterlimit="10" cx="25.255" cy="24.562" r="1.683"/>
<path fill="none" stroke="#000000" stroke-miterlimit="10" d="M26.259,22.982c0,0,2-0.875,3.312-1.729s4.062-4.458,5.938-6.271
	s6.688-5,8.062-3.5c0.493,0.538-2.312,4.875-5.5,7.5c0,0-2.25,1.896-5.75,3.754c-1.183,0.628-5.134,1.996-5.134,1.996"/>
<path fill="none" stroke="#000000" stroke-miterlimit="10" d="M75.74,77.736c0,0-2,0.875-3.312,1.729
	c-1.312,0.854-4.062,4.459-5.938,6.271s-6.688,5-8.062,3.5c-0.494-0.538,2.312-4.875,5.5-7.5c0,0,2.25-1.896,5.75-3.754
	c1.183-0.629,5.134-1.996,5.134-1.996"/>
<circle fill="none" stroke="#000000" stroke-miterlimit="10" cx="76.495" cy="76.299" r="1.683"/>
<path fill="none" stroke="#000000" stroke-miterlimit="10" d="M77.498,74.719c0,0,2-0.875,3.312-1.729
	c1.312-0.854,4.062-4.459,5.938-6.271s6.688-5,8.062-3.5c0.494,0.538-2.312,4.875-5.5,7.5c0,0-2.25,1.896-5.75,3.754
	c-1.183,0.629-5.134,1.996-5.134,1.996"/>
<path fill="none" stroke="#000000" stroke-miterlimit="10" d="M23.621,74.478c0,0-2-0.875-3.312-1.729
	c-1.312-0.854-4.062-4.459-5.938-6.271s-6.688-5-8.062-3.5c-0.494,0.538,2.312,4.875,5.5,7.5c0,0,2.25,1.896,5.75,3.754
	c1.183,0.629,5.134,1.996,5.134,1.996"/>
<circle fill="none" stroke="#000000" stroke-miterlimit="10" cx="24.375" cy="75.915" r="1.683"/>
<path fill="none" stroke="#000000" stroke-miterlimit="10" d="M25.379,77.495c0,0,2,0.875,3.312,1.729
	c1.312,0.854,4.062,4.459,5.938,6.271s6.688,5,8.062,3.5c0.494-0.538-2.312-4.875-5.5-7.5c0,0-2.25-1.896-5.75-3.754
	c-1.183-0.629-5.134-1.996-5.134-1.996"/>
<path fill="none" stroke="#000000" stroke-miterlimit="10" d="M77.373,26.071c0,0,2,0.875,3.312,1.729
	c1.312,0.854,4.062,4.459,5.938,6.271s6.688,5,8.062,3.5c0.494-0.538-2.312-4.875-5.5-7.5c0,0-2.25-1.896-5.75-3.754
	c-1.183-0.629-5.134-1.996-5.134-1.996"/>
<circle fill="none" stroke="#000000" stroke-miterlimit="10" cx="76.619" cy="24.634" r="1.683"/>
<path fill="none" stroke="#000000" stroke-miterlimit="10" d="M75.615,23.054c0,0-2-0.875-3.312-1.729
	c-1.312-0.854-4.062-4.459-5.938-6.271s-6.688-5-8.062-3.5c-0.494,0.538,2.312,4.875,5.5,7.5c0,0,2.25,1.896,5.75,3.754
	c1.183,0.629,5.134,1.996,5.134,1.996"/>
<path fill="none" stroke="#000000" stroke-miterlimit="10" d="M22.042,73.5c0,0,0.159-1.458,1.58-1.875s10.716-9.374,13.235-13.458
	s3.603-5.584,3.603-8.5s-3.913-8.459-5.79-10.75s-7.294-8.292-8.877-9.042s-3.099-2.792-3.099-2.792"/>
<path fill="none" stroke="#000000" stroke-miterlimit="10" d="M79.848,73.561c0,0-1.21-1.47-2.631-1.887S66.135,61.74,64.359,58.812
	c-2.047-3.375-2.559-5.764-2.559-8.68s3.158-7.882,5.782-11.299c2.203-2.868,7.302-7.744,8.884-8.494
	c1.584-0.75,3.1-2.792,3.1-2.792"/>
<path fill="none" stroke="#000000" stroke-miterlimit="10" d="M29.973,23.722c0,0,2.485,4.986,4.402,6.403s7.951,6.959,11.226,8.167
	c0.297,0.11,0.602,0.222,0.914,0.331C49.641,39.719,53.598,40.546,60,36c7.042-5,10.183-7.836,10.675-8.918s1.514-3.18,1.514-3.18"
	/>
<path fill="none" stroke="#000000" stroke-miterlimit="10" d="M29.731,76.82c0,0,0.019-0.403,0.603-1.695s4.708-5.667,7.542-7.792
	s7.645-6.833,13.01-6.583s10.631,4.436,14.498,8.03s5.367,5.719,5.659,6.636s0.417,1.404,0.417,1.404"/>
<path fill="none" stroke="#000000" stroke-miterlimit="10" d="M21.533,75.816c0,0,0.034,1.68,1.675,2.793
	c2.542,1.725,4.804,0.203,4.804,0.203"/>
<path fill="none" stroke="#000000" stroke-miterlimit="10" d="M73.297,78.947c0,0,3.173,1.729,5.287,0.078s1.861-3.28,1.861-3.28"/>
<path fill="none" stroke="#000000" stroke-miterlimit="10" d="M21.851,24.864c0.003,0,0.242-2.377,2.024-3.281
	c2.384-1.208,4.505,0.365,4.505,0.365"/>
<path fill="none" stroke="#000000" stroke-miterlimit="10" d="M73.318,21.925c0.036,0.02,2.64-1.465,5.479,0.617
	c1.609,1.18,1.697,2.568,1.697,2.568"/>
<path fill="none" stroke="#000000" stroke-miterlimit="10" d="M29.43,33.099c0.164-0.13,4.038-3.844,4.038-3.844"/>
<line fill="none" stroke="#000000" stroke-miterlimit="10" x1="31.25" y1="35.025" x2="35.406" y2="31.07"/>
<line fill="none" stroke="#000000" stroke-miterlimit="10" x1="32.625" y1="36.188" x2="36.75" y2="32.056"/>
<line fill="none" stroke="#000000" stroke-miterlimit="10" x1="34.219" y1="38.156" x2="38.77" y2="33.718"/>
<line fill="none" stroke="#000000" stroke-miterlimit="10" x1="62.938" y1="34" x2="67.583" y2="38.833"/>
<line fill="none" stroke="#000000" stroke-miterlimit="10" x1="65.032" y1="32.295" x2="69.35" y2="36.757"/>
<line fill="none" stroke="#000000" stroke-miterlimit="10" x1="66.498" y1="31.141" x2="70.584" y2="35.441"/>
<line fill="none" stroke="#000000" stroke-miterlimit="10" x1="68.396" y1="29.55" x2="72.441" y2="33.618"/>
</svg>
