<?xml version="1.0" encoding="utf-8"?>
<!-- Generator: Adobe Illustrator 16.0.0, SVG Export Plug-In . SVG Version: 6.00 Build 0)  -->
<!DOCTYPE svg PUBLIC "-//W3C//DTD SVG 1.1//EN" "http://www.w3.org/Graphics/SVG/1.1/DTD/svg11.dtd">
<svg version="1.1" id="Layer_1" xmlns="http://www.w3.org/2000/svg" xmlns:xlink="http://www.w3.org/1999/xlink" x="0px" y="0px"
	 width="100px" height="100px" viewBox="0 0 100 100" enable-background="new 0 0 100 100" xml:space="preserve">
<path fill="none" stroke="#000000" stroke-miterlimit="10" d="M65.203,36.042c-0.724-0.125-2.312-0.5-2.688-0.5
	s-0.128-0.38-0.128-0.38s0.447-0.61,0.273-0.683c-2.271-0.951-8.048-1.004-10.354-1.104c-2.875-0.125-6.724-0.442-9.604-0.458
	c-0.354-0.002-0.5,4.75-0.5,4.75s8.375,0.312,12.5,0.875s6.167,0.854,7.167,0.917c0.134,0.008,0.02-1.373,0.521-1.375
	c0.642-0.002,2.583,0.188,2.5,0.583"/>
<circle fill="none" stroke="#000000" stroke-miterlimit="10" cx="49.412" cy="35.75" r="1.75"/>
<line fill="none" stroke="#000000" stroke-miterlimit="10" x1="47.662" y1="35.75" x2="51.162" y2="35.75"/>
<path fill="none" stroke="#000000" stroke-miterlimit="10" d="M45.875,37.836v24.582l-0.963,1.416v4.709l0.963,1.125v3.625
	c0,0,1.412,0.75,3.537,0.666c2.125-0.084,2.917-1,2.917-1v-3.375l1-1.584v-4.125l-1.208-1.332V38.239"/>
<path fill="none" stroke="#000000" stroke-miterlimit="10" d="M45.875,70.197h-2.921c0,0-0.5,0.375-0.5,1.375
	s0.562,1.062,0.562,1.062h2.859"/>
<path fill="none" stroke="#000000" stroke-miterlimit="10" d="M47.516,73.967v3.387l-0.656,0.312v4.5c0,0,0.406,0.625,1.875,0.625
	s2.406-0.594,2.406-0.594v-4.625l-0.781-0.312v-3.293"/>
<path fill="none" stroke="#000000" stroke-miterlimit="10" d="M49,88.209h-3.828c0,0-0.374-0.021-0.792-0.209
	c-0.416-0.188-4.27-1.168-6.479-1.062c-2.209,0.104-4.854,0.867-6.625,0.631c-1.771-0.234-6.063-2.068-6.021-3.34
	c0.042-1.27,0.918-2.375,2.646-2.625s7.583-0.646,8.833-0.375c1.25,0.27,3.062,0.771,4.188,0.562s4.771-0.543,5.25-0.521
	s0.688-0.021,0.688-0.021"/>
<path fill="none" stroke="#000000" stroke-miterlimit="10" d="M40.922,83.207"/>
<path fill="none" stroke="#000000" stroke-miterlimit="10" d="M25.255,84.229v1.418c-0.042,1.27,4.25,3.104,6.021,3.34
	c1.771,0.234,4.416-0.527,6.625-0.633c2.209-0.104,6.062,0.875,6.479,1.062c0.418,0.188,0.792,0.209,0.792,0.209H49"/>
<path fill="none" stroke="#000000" stroke-miterlimit="10" d="M72.745,84.229v1.418c0.042,1.27-4.25,3.104-6.021,3.34
	c-1.771,0.234-4.416-0.527-6.625-0.633c-2.209-0.104-6.062,0.875-6.479,1.062c-0.416,0.188-0.791,0.209-0.791,0.209H49"/>
<path fill="none" stroke="#000000" stroke-miterlimit="10" d="M58.685,69.445l-0.314,1.389c0,0,0.791,0.709,2.208,1s3.167,0,3.167,0
	l0.208-1.422"/>
<circle fill="none" stroke="#000000" stroke-miterlimit="10" cx="43.203" cy="13.042" r="3"/>
<circle fill="none" stroke="#000000" stroke-miterlimit="10" cx="43.203" cy="13.042" r="1.542"/>
<path fill="none" stroke="#000000" stroke-miterlimit="10" d="M40.91,14.972c0,0,1.709,1.986,3.251,1.986
	c1.818,0,3.292-1.474,3.292-3.292s-2.708-3.199-2.708-3.199"/>
<polyline fill="none" stroke="#000000" stroke-miterlimit="10" points="47.282,14.713 55.912,14.713 58.328,15.583 58.328,13.042 
	56.078,12.167 56.078,11 45.601,11 "/>
<polyline fill="none" stroke="#000000" stroke-miterlimit="10" points="56.078,12.167 56.078,14.773 56.078,12.021 61.933,11.979 
	61.933,9.646 43.203,9.646 "/>
<polyline fill="none" stroke="#000000" stroke-miterlimit="10" points="61.933,12.208 63.308,12.896 63.224,10.375 62.141,9.51 "/>
<line fill="none" stroke="#000000" stroke-miterlimit="10" x1="63.724" y1="13.146" x2="58.328" y2="13.146"/>
<polyline fill="none" stroke="#000000" stroke-miterlimit="10" points="41.766,16.042 39.724,17.604 39.724,20.625 53.35,20.438 
	53.35,17.667 50.183,14.773 "/>
<polyline fill="none" stroke="#000000" stroke-miterlimit="10" points="58.328,15.583 55.641,15.583 56.766,17.875 56.859,20.625 
	53.35,20.438 "/>
<path fill="none" stroke="#000000" stroke-miterlimit="10" d="M53.35,17.667"/>
<polyline fill="none" stroke="#000000" stroke-miterlimit="10" points="34.943,12.167 34.943,11 40.938,11 "/>
<path fill="none" stroke="#000000" stroke-miterlimit="10" d="M39.125,14.713"/>
<polyline fill="none" stroke="#000000" stroke-miterlimit="10" points="34.943,12.167 34.943,14.773 34.943,12.021 31.186,11.979 
	31.186,9.646 43.207,9.646 "/>
<path fill="none" stroke="#000000" stroke-miterlimit="10" d="M30.328,14.773"/>
<polyline fill="none" stroke="#000000" stroke-miterlimit="10" points="37.398,14.583 40.766,14.583 34.943,14.583 34.943,14.073 
	"/>
<path fill="none" stroke="#000000" stroke-miterlimit="10" d="M43.703,20.625v1.458c0,0,2.75,0.458,5.208,0.458
	c2.458,0,5.083-0.458,5.083-0.458v-1.458"/>
<path fill="none" stroke="#000000" stroke-miterlimit="10" d="M46.203,22.542c-0.083,0.083,0,10.375,0,10.375"/>
<line fill="none" stroke="#000000" stroke-miterlimit="10" x1="51.531" y1="22.403" x2="51.531" y2="33.338"/>
<polyline fill="none" stroke="#000000" stroke-miterlimit="10" points="62.625,78.959 59.203,78.959 59.203,79.584 62.183,79.584 
	64.141,80.875 65.891,80.334 64.474,79.209 66.328,78.084 65.099,77.541 63.953,78.229 "/>
<path fill="none" stroke="#000000" stroke-miterlimit="10" d="M62.766,73.5v5.707V73.5z"/>
<polyline fill="none" stroke="#000000" stroke-miterlimit="10" points="62.766,73.854 62.766,73.5 64.058,73.5 64.058,79.125 "/>
<path fill="none" stroke="#000000" stroke-miterlimit="10" d="M65.462,78.609c0,0,4.585,0.385,3.663,3.291
	c-0.407,1.283-2.483,2.438-5.547,2.438S58.2,83.236,58.031,81.9c-0.188-1.484,1.328-2.316,1.328-2.316"/>
<polyline fill="none" stroke="#000000" stroke-miterlimit="10" points="59.203,79.584 59.203,81.791 61.875,81.791 64.141,83.135 
	64.141,80.875 "/>
<polyline fill="none" stroke="#000000" stroke-miterlimit="10" points="66.406,80.48 66.406,82.559 64.359,83.432 "/>
<polyline fill="none" stroke="#000000" stroke-miterlimit="10" points="66.922,77.979 66.922,79.744 65.891,80.334 "/>
<path fill="none" stroke="#000000" stroke-miterlimit="10" d="M58.031,81.9l-0.953-0.109c-1.125-0.209-4.771-0.543-5.25-0.521
	s-0.688-0.021-0.688-0.021"/>
<path fill="none" stroke="#000000" stroke-miterlimit="10" d="M69.224,81.473l0.875,0.131c1.729,0.25,2.604,1.355,2.646,2.625
	c0.042,1.271-4.25,3.105-6.021,3.34c-1.771,0.236-4.416-0.527-6.625-0.631c-2.209-0.105-6.062,0.875-6.479,1.062
	c-0.416,0.188-0.791,0.209-0.791,0.209H49"/>
<path fill="none" stroke="#000000" stroke-miterlimit="10" d="M69.179,80.67c0,0,0.445,1.373,0.447,3.23
	c0.001,1.188-2.476,2.59-5.539,2.59s-5.793-1.113-5.962-2.449c-0.188-1.484-0.094-2.141-0.094-2.141"/>
<path fill="none" stroke="#000000" stroke-miterlimit="10" d="M62.766,79.125c0,0,0.262,0.229,0.646,0.26s0.646-0.359,0.646-0.359"
	/>
<path fill="none" stroke="#000000" stroke-miterlimit="10" d="M65.684,67.414c-0.405,1.996-1.812,3.398-3.14,3.129l-3.192-0.65
	c-1.328-0.268-2.076-2.105-1.67-4.104L61.36,47.68c0.405-1.999,1.812-3.4,3.14-3.13l3.193,0.649c1.328,0.268,2.075,2.106,1.67,4.107
	L65.684,67.414z"/>
<line fill="none" stroke="#000000" stroke-miterlimit="10" x1="64.013" y1="44.523" x2="65.547" y2="34.293"/>
<line fill="none" stroke="#000000" stroke-miterlimit="10" x1="68.115" y1="45.348" x2="70.584" y2="35.441"/>
<ellipse transform="matrix(0.9637 0.2669 -0.2669 0.9637 11.8034 -16.9073)" fill="none" stroke="#000000" stroke-miterlimit="10" cx="68.109" cy="34.975" rx="2.641" ry="1.203"/>
<path fill="none" stroke="#000000" stroke-miterlimit="10" d="M70.071,37.5l0.913,0.167c0,0,0.406,0.125,0.156,1.031
	s-0.719,0.906-0.719,0.906l-0.826-0.196"/>
<polyline fill="none" stroke="#000000" stroke-miterlimit="10" points="33.153,79.297 29.731,79.297 29.731,79.922 32.71,79.922 
	34.668,81.213 36.418,80.672 35.001,79.547 36.856,78.422 35.626,77.879 34.481,78.566 "/>
<polyline fill="none" stroke="#000000" stroke-miterlimit="10" points="33.293,74.191 33.293,73.838 34.585,73.838 34.585,79.463 
	"/>
<path fill="none" stroke="#000000" stroke-miterlimit="10" d="M35.99,78.947c0,0,4.585,0.385,3.663,3.291
	c-0.407,1.283-2.483,2.438-5.547,2.438s-5.378-1.102-5.547-2.438c-0.188-1.484,1.328-2.316,1.328-2.316"/>
<polyline fill="none" stroke="#000000" stroke-miterlimit="10" points="29.731,79.922 29.731,82.129 32.403,82.129 34.668,83.473 
	34.668,81.213 "/>
<polyline fill="none" stroke="#000000" stroke-miterlimit="10" points="36.934,80.818 36.934,82.896 34.887,83.77 "/>
<polyline fill="none" stroke="#000000" stroke-miterlimit="10" points="37.45,78.316 37.45,80.082 36.418,80.672 "/>
<path fill="none" stroke="#000000" stroke-miterlimit="10" d="M39.707,81.008c0,0,0.445,1.373,0.447,3.23
	c0.001,1.188-2.476,2.59-5.539,2.59s-5.793-1.113-5.962-2.449c-0.188-1.484-0.094-2.141-0.094-2.141"/>
<path fill="none" stroke="#000000" stroke-miterlimit="10" d="M33.293,73.967v5.707V73.967z"/>
</svg>
